<svg xmlns:mydata="http://www.w3.org/2000/svg" mydata:contrastcolor="ffffff"
    mydata:template="Default" mydata:presentation="2.5" mydata:layouttype="undefined"
    mydata:specialfontid="undefined" mydata:id1="1065" mydata:id2="192"
    mydata:companyname="Lucky10Collection" mydata:companytagline="All For You" version="1.1"
    xmlns="http://www.w3.org/2000/svg" xmlns:xlink="http://www.w3.org/1999/xlink"
    viewBox="65.00000000000003 186.51376444809316 420 96.97247110381366">
    <g fill="#101820" fill-rule="evenodd" stroke="none" stroke-width="1" stroke-linecap="butt"
        stroke-linejoin="miter" stroke-miterlimit="10" stroke-dasharray="" stroke-dashoffset="0"
        font-family="none" font-weight="none" font-size="none" text-anchor="none"
        style="mix-blend-mode: normal">
        <g
            data-paper-data="{&quot;isGlobalGroup&quot;:true,&quot;bounds&quot;:{&quot;x&quot;:65.00000000000003,&quot;y&quot;:186.51376444809316,&quot;width&quot;:420,&quot;height&quot;:96.97247110381366}}">
            <g data-paper-data="{&quot;isContainerElementsWrapper&quot;:true}">
                <path
                    d="M65,269.82072c0,3.77408 1.3341,6.99503 4.00229,9.66287c2.66831,2.66843 5.88915,4.00265 9.66252,4.00265h392.67056c3.77348,0 6.99415,-1.33422 9.66199,-4.00265c2.66843,-2.66784 4.00265,-5.8888 4.00265,-9.66287v-69.64143c0,-3.77408 -1.33422,-6.99503 -4.00265,-9.66287c-2.66784,-2.66843 -5.8885,-4.00265 -9.66199,-4.00265h-392.67056c-3.77343,0 -6.99427,1.33422 -9.66252,4.00265c-2.66819,2.66784 -4.00229,5.8888 -4.00229,9.66287zM78.66481,279.47119c-2.66459,0 -4.93902,-0.94204 -6.82328,-2.82613c-1.8842,-1.88468 -2.8263,-4.15946 -2.8263,-6.82434v-69.64143c0,-2.66489 0.9421,-4.93967 2.8263,-6.82434c1.88426,-1.88408 4.15869,-2.82613 6.82328,-2.82613h392.67056c2.6643,0 4.93878,0.94204 6.82346,2.82613c1.88408,1.88468 2.82613,4.15946 2.82613,6.82434v69.64143c0,2.66489 -0.94204,4.93967 -2.82613,6.82434c-1.88468,1.88408 -4.15916,2.82613 -6.82346,2.82613z"
                    data-paper-data="{&quot;isOuterDoubleOutline&quot;:true}"
                    style="fill: rgb(255, 255, 255);"></path>
                <path
                    d="M74.23514,269.82072c0,2.44695 1.98325,4.42967 4.42967,4.42967h392.67056c2.44695,0 4.42967,-1.98272 4.42967,-4.42967v-69.64143c0,-2.44695 -1.98272,-4.42967 -4.42967,-4.42967h-392.67056c-2.44642,0 -4.42967,1.98272 -4.42967,4.42967zM230.77794,239.50851c-0.32514,-0.19491 -0.58472,-0.32514 -0.58472,-0.77962c0,-0.19491 0.06467,-0.38981 0.12935,-0.52004c0.06556,-0.12935 0.13023,-0.19491 0.19491,-0.32425c0.26046,-0.38981 0.58472,-0.77962 0.84518,-1.10476c0.60421,-0.70254 1.2155,-1.39889 1.82679,-2.09169c-0.79734,0.22591 -1.57785,0.44917 -2.2166,0.66268c-4.74329,1.42901 -9.42101,3.05293 -14.09785,4.80707c-5.19777,5.71781 -13.7736,14.48766 -21.24468,16.63162c-0.64939,0.26046 -1.36434,0.38981 -2.01373,0.38981c-0.90985,0 -1.68947,-0.19491 -2.4691,-0.51916c-2.07929,-0.77962 -2.72867,-2.40442 -2.664,-4.74329c0,-1.29878 0.84518,-2.0784 1.6248,-2.0784c0.71406,0 1.42901,0.32425 1.75415,0.84429c0.12935,0.19491 0.12935,0.52004 -0.26046,0.97453c-0.45448,0.52004 -0.58472,0.84429 -0.58472,1.16943c0,0.45448 0.52004,0.64939 1.16943,0.64939c5.52291,0 11.82455,-5.58669 15.91756,-9.42013c0.45448,-0.38981 0.90897,-0.77962 1.29878,-1.2341c-2.14396,0.97453 -6.30164,2.85891 -10.26442,4.80796c-0.58472,0.25958 -1.2341,0.58472 -1.81882,0.84429c-0.06556,0.06467 -1.49457,0.84429 -2.33886,0.77962c-0.58472,0 -2.14396,-0.64939 -2.01461,-0.84429c0.32514,-0.65027 4.09301,-2.79423 5.65225,-3.44362c5.65225,-2.4691 11.75899,-4.67773 13.70804,-5.58758c1.49457,-0.64939 5.00286,-4.61217 6.10674,-5.84627c0.06556,-0.06556 0.06556,-0.13023 0.13023,-0.26046c-0.19491,0.13023 -0.45448,0.19491 -0.64939,0.26046c-3.05381,1.42901 -6.1723,2.92269 -9.03032,4.67684c-0.71495,0.45537 -2.53377,1.4299 -3.37895,1.4299c-1.0392,0 -3.11848,-1.6248 -2.92358,-2.79423c0.03455,-0.22326 0.11074,-0.46334 0.22414,-0.71495c-3.05558,1.67884 -6.65247,3.4826 -7.82456,3.89899c-0.58472,0.25958 -1.23499,0.38981 -1.88438,0.38981c-0.97453,0 -1.75415,-0.32514 -2.53377,-0.84518c-1.68947,-1.2341 -2.664,-2.14396 -2.664,-4.41726c0,-1.16943 0.26046,-2.33886 0.26046,-3.5083c0,-0.06467 -0.06556,-0.06467 -0.13023,-0.06467c-0.64939,0 -9.22522,6.17141 -10.13508,7.21061c-0.51916,0.52004 -1.10387,1.4299 -1.81882,2.20952c-0.71495,0.71406 -1.49457,1.36434 -2.4691,1.36434c-0.90897,0 -2.59844,-0.38981 -2.59844,-1.75415c0,-0.32514 0.06556,-0.65027 0.26046,-0.90985c0.12935,-0.25958 0.32425,-0.52004 0.45448,-0.71495c0.77608,-1.08881 1.57962,-2.15725 2.40708,-3.20442c-2.57895,1.32713 -5.58935,2.53997 -6.50009,2.74994c-0.84429,0.32514 -1.81882,0.64939 -2.79335,0.90985c-0.97453,0.32425 -2.01461,0.51916 -2.92358,0.51916c-1.81971,0 -3.37895,-1.0392 -4.28792,-2.59844c-0.26046,-0.32514 -0.38981,-0.77962 -0.38981,-1.29966c0,-0.32425 0.06467,-0.64939 0.19491,-0.90897c0.04961,-0.08771 0.09745,-0.17807 0.14441,-0.27021l-0.01506,0.00975c-0.84429,0.52004 -2.53288,1.68947 -4.22236,2.664c-1.68947,0.97453 -3.5083,1.88438 -4.48282,1.88438c-1.62392,0 -3.83343,-1.23499 -3.83343,-3.11848c0,-0.32514 0.13023,-0.65027 0.19491,-0.90985c0.06556,-0.13023 0.13023,-0.25958 0.13023,-0.38981c0.06467,-0.13023 0.06467,-0.19491 0.06467,-0.32425v-0.06556c-0.19491,0 -0.71406,0.25958 -1.42901,0.71495c-0.71495,0.38981 -1.55924,0.97453 -2.46821,1.55924c-1.88438,1.10387 -4.02834,2.33886 -5.52291,2.33886c-1.16943,0 -2.72867,-1.4299 -2.72867,-2.664c0,-2.0784 4.54838,-7.14594 6.62678,-7.14594c0.65027,0 1.81971,0.71406 1.81971,1.49368c0,0.58472 -1.16943,1.94905 -2.20952,3.11848c-0.51916,0.65027 -1.0392,1.2341 -1.49368,1.75415c-0.32514,0.38981 -0.52004,0.71495 -0.65027,0.90985c0.32514,-0.06556 2.27419,-1.16943 4.41815,-2.33886c2.33886,-1.36434 4.67773,-2.664 7.08126,-3.96278c0.38981,-0.19491 1.10476,-0.71495 1.88438,-1.16943c0.71406,-0.38981 1.49368,-0.84518 1.88349,-0.84518c0.58472,0 1.49457,1.04009 1.49457,1.55924c0,0.13023 -0.06467,0.19491 -0.06467,0.26046c-0.06556,0.06467 -0.13023,0.19491 -0.19491,0.25958c-0.13023,0.19491 -0.32514,0.45448 -0.58472,0.71495c-0.45537,0.58472 -1.10476,1.29878 -1.68947,2.01373c-1.29966,1.49457 -2.40354,2.92358 -2.4691,3.5083c1.49457,0 8.12135,-3.63853 9.8755,-4.67773l0.06467,-0.06467l0.13023,0.06467c0.02126,0.01063 0.04518,0.02126 0.07265,0.03189c1.78427,-1.97917 3.98316,-3.64827 6.4239,-4.77429c0.38981,-0.19491 0.77962,-0.26046 1.16943,-0.45537c0.45448,-0.19491 0.97453,-0.38981 1.55924,-0.38981c2.01373,0 3.31339,1.94905 4.02745,3.37895c0.13023,0.19491 0.13023,0.38981 0.13023,0.58472c0,0.25958 -0.19491,0.97453 -0.71406,0.97453c-0.52004,0 -0.84518,-0.71495 -0.84518,-1.16943c-0.06467,-0.32514 -0.12935,-0.52004 -0.19491,-0.65027c-0.06467,-0.12935 -0.19491,-0.25958 -0.32425,-0.25958c-0.13023,0 -0.26046,0.06467 -0.38981,0.06467c-3.37895,0.77962 -7.47196,3.63853 -9.42101,6.49655c-0.12935,0.13023 -0.32425,0.45537 -0.51916,0.77962c-0.06556,0.13023 -0.32514,0.65027 -0.32514,0.71495c0,0.19491 0.13023,0.25958 0.25958,0.25958c3.5083,0 9.35545,-2.40354 12.60417,-3.83255c1.36434,-0.58472 2.79335,-1.0392 4.15768,-1.55924c0.13023,-0.06467 0.19491,-0.06467 0.32514,-0.13023h0.03367c2.64185,-2.98205 5.48393,-5.78957 8.47661,-8.4456c1.75415,-1.55924 7.86088,-6.88636 10.32998,-6.88636c0.84429,0 2.14396,0.97453 2.14396,1.88438c0,0.45448 -0.32514,0.90897 -0.58472,1.36345c-1.68947,2.33886 -5.58758,5.45735 -7.86088,7.14682c-2.40442,1.68947 -4.87263,3.31339 -7.53663,5.13221c-0.12935,0.13023 -0.64939,0.52004 -1.10387,0.97453c-0.19491,0.19491 -0.38981,0.45537 -0.58472,0.65027c0.06467,-0.06556 0.19491,-0.13023 0.32425,-0.19491c0.32514,-0.13023 0.65027,-0.32514 0.71495,-0.38981c5.84716,-3.96366 10.13508,-6.30253 16.8912,-8.31625c0.38981,-0.13023 0.84518,-0.19491 1.29966,-0.19491c0.84429,0 2.07929,0.64939 2.07929,1.75415c0,2.01373 -8.8363,3.83343 -10.46021,4.02834c-0.32514,0.06467 -0.32514,0.12935 -0.32514,0.38981c0,0.97453 -0.06467,2.20863 -0.06467,3.37806c0.06467,1.2341 0.13023,2.40354 0.25958,3.31339c0,0.06467 0.13023,0.38981 0.13023,0.38981c0,0.06467 0.06467,0.06467 0.19491,0.06467c0.38981,0 1.81882,-0.45448 2.27419,-0.64939c3.96278,-1.68947 7.92556,-3.63853 11.9539,-5.19777c0.1134,-0.02215 0.23389,-0.05316 0.36057,-0.08328c2.61439,-2.34861 5.95524,-4.61483 7.43564,-5.37407c0.25958,-0.19491 0.58472,-0.32425 0.84429,-0.32425c0.45448,0 1.2341,0.58472 1.16943,1.16943c0,0.06467 -0.06467,0.19491 -0.13023,0.25958c-0.06467,0.13023 -0.19491,0.25958 -0.25958,0.38981l-0.90985,0.90985c-0.77962,0.71406 -1.75415,1.62392 -2.72867,2.59844c-1.94905,1.75415 -3.89811,3.63764 -4.48282,4.41726v0.06556c0.13023,-0.06556 0.32514,-0.13023 0.45537,-0.19491c4.48282,-1.81882 8.96564,-3.63853 13.31823,-5.78249c0.77962,-0.38981 1.36434,-0.90897 1.94905,-1.49368c0.77962,-0.84518 3.05293,-4.09301 3.89811,-4.80796c0.51916,-0.71495 1.29878,-0.97453 1.94905,-0.97453c1.16943,0 2.0784,0.84429 1.36434,1.81882c-1.16943,1.36434 -8.44649,9.94017 -9.61592,11.36918c4.74329,-1.75326 8.96564,-2.92269 13.96851,-3.96278c0.19491,-0.06467 0.45448,-0.12935 0.71406,-0.12935c0.14795,-0.03721 0.2959,-0.07442 0.44385,-0.09922c0.64053,-0.72647 1.27486,-1.45027 1.89501,-2.17497c1.49457,-1.68947 2.85891,-3.44362 4.35348,-5.13221c1.88349,-2.14396 3.83255,-4.22324 5.7816,-6.3672c-0.32514,0.19491 -0.71406,0.38981 -1.10387,0.58472c-0.58472,0.32514 -1.16943,0.65027 -1.6248,0.90985c-0.38981,0.19491 -0.90897,0.45448 -1.29878,0.45448c-0.26046,0 -0.52004,-0.06467 -0.77962,-0.19491c-0.06556,-0.13023 -0.19491,-0.25958 -0.19491,-0.45448c0,-0.64939 0.64939,-1.16943 1.16943,-1.42901c0.19491,-0.13023 0.45448,-0.32514 0.64939,-0.45537c1.0392,-0.77962 2.14396,-1.55924 3.24783,-2.2733c1.4299,-1.04009 2.98914,-1.94905 4.48282,-2.98914c0.77962,-0.51916 1.49457,-1.10387 2.20952,-1.68859c0.06467,0 0.12935,-0.06556 0.12935,-0.06556c0.06556,-0.06467 0.13023,-0.12935 0.19491,-0.12935c0.13023,-0.06556 0.32514,-0.19491 0.58472,-0.19491c0.65027,0 2.07929,1.62392 2.07929,2.20863c0,0.38981 -0.25958,0.77962 -0.52004,1.0392c-0.06467,0.06556 -0.12935,0.19491 -0.19491,0.26046c-3.37806,3.83255 -6.49655,7.86088 -10.00484,11.62876c-1.29878,1.36434 -2.46821,2.92358 -3.7032,4.35259c-2.72867,3.11848 -5.52202,6.23697 -8.2507,9.35545c-0.52004,0.58472 -0.97453,0.90985 -1.88438,0.90985c-0.06467,0 -0.12935,0 -0.25958,-0.06556c-0.06467,0 -0.13023,0 -0.19491,-0.06467c-0.12935,-0.06467 -0.38981,-0.13023 -0.58472,-0.19491c-0.38981,-0.13023 -0.84429,-0.32514 -0.90897,-0.38981zM311.72654,241.97761c-0.58472,-0.52004 -1.16943,-1.04009 -1.16943,-2.01461c0,-1.0392 0.97453,-2.79335 1.62392,-3.63764c0.74507,-0.9887 1.52203,-1.98715 2.32646,-2.98382c-0.06113,-0.00266 -0.12137,-0.00443 -0.1825,-0.00443c-0.97453,0 -1.88349,0.25958 -2.85802,0.25958c-0.38981,0.06467 -0.65027,0.13023 -0.90985,0.38981c-1.75415,1.75415 -3.76787,2.98825 -5.97651,4.02745c-0.84518,0.38981 -3.31339,1.4299 -4.22324,1.4299c-1.49457,0 -3.89811,-1.81971 -3.89811,-3.05381c0,-0.17364 0.04784,-0.36589 0.132,-0.57143c-2.56478,1.31384 -5.52999,2.50719 -6.43365,2.71539c-0.84429,0.32514 -1.81882,0.64939 -2.79335,0.90985c-0.97453,0.32425 -2.01461,0.51916 -2.92358,0.51916c-1.81971,0 -3.37895,-1.0392 -4.28792,-2.59844c-0.26046,-0.32514 -0.38981,-0.77962 -0.38981,-1.29966c0,-0.32425 0.06467,-0.64939 0.19491,-0.90897c0.25958,-0.45448 0.45448,-0.97453 0.71406,-1.42901c0.26046,-0.52004 0.58472,-0.97453 0.90985,-1.4299c1.81882,-2.0784 4.09301,-3.83255 6.62678,-5.00198c0.38981,-0.19491 0.77962,-0.26046 1.16943,-0.45537c0.45448,-0.19491 0.97453,-0.38981 1.55924,-0.38981c2.01373,0 3.31339,1.94905 4.02745,3.37895c0.13023,0.19491 0.13023,0.38981 0.13023,0.58472c0,0.25958 -0.19491,0.97453 -0.71495,0.97453c-0.51916,0 -0.84429,-0.71495 -0.84429,-1.16943c-0.06467,-0.32514 -0.13023,-0.52004 -0.19491,-0.65027c-0.06467,-0.12935 -0.19491,-0.25958 -0.32514,-0.25958c-0.12935,0 -0.25958,0.06467 -0.38981,0.06467c-3.37806,0.77962 -7.47107,3.63853 -9.42013,6.49655c-0.12935,0.13023 -0.32425,0.45537 -0.51916,0.77962c-0.06556,0.13023 -0.32514,0.65027 -0.32514,0.71495c0,0.19491 0.13023,0.25958 0.25958,0.25958c3.5083,0 9.35545,-2.40354 12.60417,-3.83255c1.36434,-0.58472 2.79335,-1.0392 4.15768,-1.55924c0.13023,-0.06467 0.19491,-0.06467 0.32514,-0.13023c0.10277,0 0.22503,0.00443 0.34729,0.02126l0.04252,-0.02126c0.12935,-0.06467 0.38981,-0.25958 0.38981,-0.38981c0,0 0,-0.06467 -0.06556,-0.12935c0,-0.06556 -0.06467,-0.06556 -0.06467,-0.13023l-0.13023,-0.13023c-0.12935,-0.19491 -0.32425,-0.45448 -0.32425,-0.77962v-0.32425h0.19491c1.10387,-0.26046 2.14396,-0.65027 3.24783,-0.97453c1.10476,-0.32514 2.27419,-0.58472 3.44362,-0.58472c2.01373,0 3.44274,0.84429 4.35259,2.59844c0.13023,0.38981 0.32514,0.45448 0.71495,0.45448c0.64939,0 1.29878,0 1.88349,0.06556c0.65027,0 1.16943,0.12935 1.81971,0.19491c0.02215,0 0.04518,0.00089 0.06822,0.00266c3.19999,-3.8352 6.7765,-7.57384 10.45578,-10.5931c3.76876,-3.18316 13.44847,-10.84914 17.54148,-10.84914c1.29966,0 3.5083,1.36434 3.5083,2.98825c0,0.26046 -0.06467,0.52004 -0.13023,0.77962c-0.38981,0.97453 -1.0392,1.68947 -1.75415,2.33886c-7.47107,6.88636 -16.04691,13.12333 -25.66194,16.69718c-0.58472,0.25958 -0.97453,0.58472 -1.42901,1.10387c-0.77962,1.0392 -4.15768,5.45735 -4.15768,6.3672c0,0.12935 0.06467,0.12935 0.19491,0.12935c4.75215,0 14.819,-5.62302 19.23095,-8.25158c3.34706,-4.08238 7.13708,-8.09831 11.04316,-11.30362c3.76876,-3.18316 13.44847,-10.84914 17.54148,-10.84914c1.29966,0 3.5083,1.36434 3.5083,2.98825c0,0.26046 -0.06467,0.52004 -0.13023,0.77962c-0.38981,0.97453 -1.0392,1.68947 -1.75415,2.33886c-7.47107,6.88636 -16.04691,13.12333 -25.66194,16.69718c-0.58472,0.25958 -0.97453,0.58472 -1.42901,1.10387c-0.77962,1.0392 -4.15768,5.45735 -4.15768,6.3672c0,0.12935 0.06467,0.12935 0.19491,0.12935c4.6919,0 14.5674,-5.48304 19.06262,-8.15147c2.70564,-2.79423 7.4126,-5.08437 9.78247,-5.62125c0.25958,-0.06467 0.45448,-0.13023 0.71495,-0.13023c0.38981,0 0.71406,0.13023 1.0392,0.32514c0.06467,0 0.06467,0.06467 0.13023,0.06467c0.71406,0.58472 1.29878,1.16943 1.29878,2.14396c0,3.11848 -5.39179,5.97739 -7.99112,5.97739c-0.77962,0 -1.68859,-0.32514 -2.20863,-0.97453c-0.25958,0.32425 -0.64939,0.71406 -0.97453,1.10387c-0.45448,0.52004 -0.71406,1.04009 -0.71406,1.4299c0,0.25958 0.12935,0.45448 0.32425,0.58472c0.25958,0.06467 0.58472,0.12935 0.84429,0.12935c3.31339,0 11.62964,-3.24783 14.94303,-4.61217c0.21971,-0.132 1.4547,-0.68217 2.30874,-1.02237c1.80199,-2.02967 4.03897,-3.7413 6.52667,-4.88947c0.38981,-0.19491 0.77962,-0.26046 1.16943,-0.45537c0.45448,-0.19491 0.97453,-0.38981 1.55924,-0.38981c2.01373,0 3.31339,1.94905 4.02745,3.37895c0.13023,0.19491 0.13023,0.38981 0.13023,0.58472c0,0.25958 -0.19491,0.97453 -0.71495,0.97453c-0.51916,0 -0.84429,-0.71495 -0.84429,-1.16943c-0.06467,-0.32514 -0.13023,-0.52004 -0.19491,-0.65027c-0.06467,-0.12935 -0.19491,-0.25958 -0.32425,-0.25958c-0.13023,0 -0.26046,0.06467 -0.38981,0.06467c-3.37895,0.77962 -7.47196,3.63853 -9.42101,6.49655c-0.12935,0.13023 -0.32425,0.45537 -0.51916,0.77962c-0.06556,0.13023 -0.32514,0.65027 -0.32514,0.71495c0,0.19491 0.13023,0.25958 0.25958,0.25958c3.5083,0 9.35545,-2.40354 12.60417,-3.83255c1.36434,-0.58472 2.79335,-1.0392 4.15768,-1.55924c0.09214,-0.04607 0.15149,-0.05936 0.22503,-0.08682c0.07708,-0.07973 0.15327,-0.15858 0.22946,-0.23832c1.88438,-1.88349 3.76876,-3.7032 5.65225,-5.52202c0.13023,-0.06467 0.19491,-0.19491 0.32514,-0.32514c0.13023,-0.12935 0.13023,-0.19491 0.13023,-0.19491c-0.06556,-0.06467 -0.13023,-0.06467 -0.26046,-0.06467c-0.13821,-0.04607 -0.30919,-0.02658 -0.44297,-0.01152c-0.05493,0.0062 -0.10365,0.01152 -0.14175,0.01152c-1.81882,0 -2.40354,0.25958 -4.22236,0.25958c-1.16943,0 -3.24872,0 -3.24872,-1.68859c0,-0.19491 0.19491,-0.38981 0.32514,-0.52004c0.71406,-0.45448 1.94905,-0.58472 2.72867,-0.58472c1.49368,-0.13023 1.88349,-0.13023 2.33886,-0.13023l6.49655,-0.19491l0.19491,-0.12935c1.42901,-1.10476 2.98825,-2.14396 4.54749,-3.05381c1.49457,-0.97453 3.11848,-1.81882 4.67773,-2.79335c0.38981,-0.19491 1.36434,-0.71495 1.88438,-0.71495c0.58472,0 1.62392,0.65027 1.62392,1.36434c0,0.19491 -0.13023,0.65027 -0.38981,0.65027c0,0.06467 -0.06467,0.12935 -0.13023,0.19491c-1.75415,1.42901 -3.63764,2.85802 -5.45735,4.22236c0.84518,0 1.6248,-0.06467 2.40442,-0.06467c0.19491,0 0.77962,0 1.36434,0.06467c0.32425,0 0.84429,0.06467 1.16943,0.19491c0.06467,0 0.19491,0.13023 0.19491,0.25958c0,0.32514 -0.19491,0.52004 -0.38981,0.71495c-0.77962,0.38981 -1.49457,0.64939 -2.33886,0.84429c-1.88438,0.26046 -3.76876,0.32514 -5.65225,0.45537c-5.26244,4.02745 -14.09785,11.9539 -16.63162,17.47592v0.25958c0.32425,-0.06467 0.71406,-0.19491 1.10387,-0.38981c8.51116,-3.37806 14.94303,-7.14594 22.60901,-10.39465c0.10454,-0.05227 0.20908,-0.06202 0.34729,-0.06467c0.5289,-0.55194 1.13222,-1.05692 1.86135,-1.49457c0.26046,-0.12935 0.58472,-0.32425 0.90985,-0.51916c0.32425,-0.13023 0.71406,-0.26046 1.0392,-0.26046c0.71495,0 1.68947,0.90985 1.62392,1.6248c-0.06467,0.32425 -0.45448,0.84429 -0.90897,1.29878c-1.68947,1.81971 -3.11848,3.57297 -3.7032,4.61305h0.19491c3.72978,-1.01174 6.90585,-3.37629 10.42566,-4.81948c0.08505,-0.06999 0.16213,-0.132 0.22857,-0.18339l0.38981,-0.19491c0.13023,-0.06467 0.38981,-0.25958 0.38981,-0.38981c0,0 0,-0.06467 -0.06467,-0.12935c0,-0.06556 -0.06467,-0.06556 -0.06467,-0.13023l-0.13023,-0.13023c-0.13023,-0.19491 -0.32514,-0.45448 -0.32514,-0.77962v-0.32425h0.19491c1.10476,-0.26046 2.14396,-0.65027 3.24872,-0.97453c1.10476,-0.32514 2.27419,-0.58472 3.44274,-0.58472c2.01461,0 3.44362,0.84429 4.35348,2.59844c0.12935,0.38981 0.32425,0.45448 0.71406,0.45448c0.65027,0 1.29966,0 1.88438,0.06556c0.64939,0 1.16943,0.12935 1.81882,0.19491c0.1134,0 0.2268,0.02746 0.33311,0.07796c0.365,-0.37386 0.69989,-0.72647 0.96655,-1.05249c0.19491,-0.19491 1.0392,-1.16943 1.0392,-1.36434c0,-0.45537 0.52004,-0.65027 0.71495,-0.65027c0.84429,0 2.20863,0.26046 2.20863,1.55924c0,0.32514 -0.06467,0.65027 -0.19491,0.90985c1.16943,-0.84429 3.18316,-2.14396 3.96278,-2.20863c0.84518,-0.13023 1.6248,0.06467 1.88438,0.71406c0.64939,1.4299 0.71495,2.72867 1.10476,4.48282c0.25958,1.10476 0.45448,1.75415 0.64939,2.07929c0.25958,0.38981 0.64939,0.58472 1.10476,0.58472c2.2733,0 7.79533,-3.89811 9.54947,-5.19777c0,0 0.32514,1.16943 -0.25958,1.75415c-2.33886,2.07929 -6.62678,6.04206 -10.00484,6.04206c-1.62392,0 -2.33886,-0.45448 -3.37806,-1.49457c-0.97453,-1.2341 -0.77962,-3.37806 -1.16943,-5.26156c-0.1763,-0.99579 -0.66799,-0.77696 -1.00199,-0.62901c-0.03632,0.01595 -0.07087,0.03101 -0.10277,0.0443c-0.52004,-0.06556 -1.75415,0.64939 -3.18316,1.75415c-2.20863,1.68859 -4.41815,3.50741 -6.30164,5.65137c-0.19491,0.26046 -0.52004,0.58472 -0.97453,0.58472c-0.77962,0 -1.4299,-0.77962 -1.4299,-1.49368c0,-1.4299 1.81971,-3.57385 3.44362,-5.39268c0.03632,-0.03898 0.07265,-0.07796 0.10897,-0.11694c-0.101,-0.00797 -0.20288,-0.0124 -0.30388,-0.0124c-0.97453,0 -1.88438,0.25958 -2.85891,0.25958c-0.38981,0.06467 -0.64939,0.13023 -0.90897,0.38981c-1.75415,1.75415 -3.76876,2.98825 -5.97739,4.02745c-0.84429,0.38981 -3.31339,1.4299 -4.22236,1.4299c-1.49457,0 -3.89811,-1.81971 -3.89811,-3.05381c0,-0.14175 0.03189,-0.29679 0.08948,-0.46157c-2.00398,1.2536 -4.30564,2.66577 -6.19622,3.44982c-1.23499,0.52004 -2.4691,0.97453 -2.98914,0.97453c-1.0392,0 -3.18316,-1.36434 -3.05293,-2.59844c0,-0.32514 0.12935,-0.64939 0.32425,-0.97453c0.13023,-0.25958 0.32514,-0.52004 0.52004,-0.77962c0.31982,-0.46511 0.62015,-0.92757 0.9196,-1.38028c-4.15591,2.41948 -8.61304,4.94174 -12.80882,7.09721c-1.55924,0.84518 -7.2115,3.76876 -8.96564,3.76876c-1.36434,0 -4.35259,-1.10476 -4.35259,-2.92358c0,-0.19491 0.06556,-0.45537 0.13023,-0.65027c0.38981,-1.42901 1.10387,-2.85802 1.94905,-4.02745c0.44208,-0.60864 0.90542,-1.20044 1.38383,-1.78073c-2.41948,1.19778 -5.02944,2.23698 -5.86665,2.43011c-0.84429,0.32514 -1.81882,0.64939 -2.79335,0.90985c-0.97453,0.32425 -2.01461,0.51916 -2.92358,0.51916c-1.81971,0 -3.37895,-1.0392 -4.28792,-2.59844c-0.26046,-0.32514 -0.38981,-0.77962 -0.38981,-1.29966c0,-0.32425 0.06467,-0.64939 0.19491,-0.90897c0.01329,-0.02481 0.02746,-0.04873 0.04075,-0.07353c-4.55724,2.05625 -12.58025,5.40065 -15.11313,5.40065c-2.14396,0 -4.7424,-1.0392 -4.7424,-3.7032c0,-0.12846 0.00709,-0.25692 0.02126,-0.38538c-1.14197,0.75482 -2.33,1.44584 -3.52956,2.07486c-1.94905,1.0392 -9.16055,4.61217 -11.17427,4.87263c-1.4299,0 -3.83343,-0.19491 -4.80796,-1.36434c-0.58472,-0.52004 -1.16943,-1.04009 -1.16943,-2.01461c0,-0.75659 0.5165,-1.89235 1.04806,-2.77917c-0.7495,0.4536 -1.51317,0.88239 -2.28216,1.28549c-1.94905,1.0392 -9.16055,4.61217 -11.17427,4.87263c-1.4299,0 -3.83343,-0.19491 -4.80796,-1.36434zM88.95421,247.5643l0.19491,0.06556c0,0 0.19491,0.06467 0.32487,0.12935c0.12988,0 0.19482,0.06556 0.32478,0.13023h0.12997c0.97453,0 2.92349,-0.45448 3.89802,-0.71495c1.29931,-0.25958 2.66365,-0.51916 3.96296,-0.71406c1.2994,-0.26046 2.66365,-0.38981 3.96304,-0.38981c8.51072,0 16.95641,-1.49457 25.46668,-1.49457c4.35348,0 8.70607,0.64939 13.12421,0.97453h0.06467l0.90985,-0.64939v-0.13023c0,-0.77962 -0.13023,-1.55924 -0.38981,-2.33886l-1.04009,-0.71495c-0.84429,0 -1.68859,-0.06467 -2.53377,-0.06467c-9.42013,0 -18.84025,0.38981 -28.19553,1.10476h-0.25984v-0.13023c0.38981,-0.52004 0.9095,-1.10476 1.36434,-1.55924c4.41771,-5.26244 20.39959,-25.3368 20.39959,-28.58552c0,-0.90985 -1.16943,-1.75415 -1.94905,-1.75415c-0.90985,0 -5.13221,5.39268 -9.22522,10.78446c-4.09292,5.45735 -8.31581,11.23983 -9.22531,12.40927l-3.31339,4.48194c-1.16934,1.4299 -2.33877,2.85891 -3.57315,4.22324c0,0 -0.25984,0.25958 -0.45475,0.52004c-0.12997,0.06467 -0.25993,0.19491 -0.38981,0.32425c0,0.06556 -0.06503,0.06556 -0.12997,0.13023c-0.12997,0.06467 -0.9095,0.19491 -1.81909,0.38981c-0.84456,0.13023 -1.75415,0.32514 -2.01399,0.32514c-3.05346,0.58472 -6.10691,1.16943 -9.03041,2.20863zM256.24497,240.48304c1.75415,0 3.57297,-0.97453 4.93731,-1.68947c6.88636,-3.7032 13.25356,-9.35457 17.86573,-15.52686c1.62392,-2.20863 2.664,-4.54749 2.664,-7.34084c0,-2.59933 -2.07929,-5.19777 -4.7424,-5.19777c-5.52291,0 -12.7344,5.52202 -16.43672,8.90097c-2.92358,2.79335 -10.98026,11.82366 -10.98026,16.11158c0,3.05293 4.35348,4.7424 6.69234,4.7424zM321.86161,229.89348c-0.06467,0.06467 -0.13023,0.13023 -0.19491,0.25958c0.06467,0 0.06467,0 0.13023,-0.06467c0.12935,-0.06467 0.25958,-0.13023 0.45448,-0.19491c0.32514,-0.19491 0.64939,-0.38981 0.71406,-0.38981c6.1723,-3.44362 14.09874,-8.90097 19.10072,-13.70804c0.52004,-0.52004 1.68947,-1.68947 2.01373,-2.33886c-0.32425,0.06467 -0.58472,0.13023 -0.90897,0.25958c-1.49457,0.71495 -3.05381,1.4299 -4.48282,2.27419c-5.32712,2.79335 -12.60417,9.22522 -16.50139,13.51314c-0.06556,0.06467 -0.19491,0.19491 -0.32514,0.38981zM340.05248,230.15306c0.06467,-0.12935 0.12935,-0.19491 0.19491,-0.25958c0.12935,-0.19491 0.25958,-0.32514 0.32425,-0.38981c3.89811,-4.28792 11.17516,-10.71979 16.50228,-13.51314c1.42901,-0.84429 2.98825,-1.55924 4.48282,-2.27419c0.32425,-0.12935 0.58472,-0.19491 0.90897,-0.25958c-0.32425,0.64939 -1.49368,1.81882 -2.01373,2.33886c-5.00286,4.80707 -12.92842,10.26442 -19.10072,13.70804c-0.06467,0 -0.38981,0.19491 -0.71406,0.38981c-0.19491,0.06467 -0.32514,0.13023 -0.45537,0.19491c-0.06467,0.06467 -0.06467,0.06467 -0.12935,0.06467zM254.16569,237.10498c0,-1.55924 1.94905,-4.93731 2.98825,-6.49655c4.09301,-6.3672 11.23983,-13.90295 18.58068,-16.56695c0.38981,-0.13023 1.55924,-0.45448 2.01373,-0.52004c0,0.71495 0,2.07929 -0.12935,2.53377c0,0.13023 -0.06556,0.32514 -0.13023,0.45537c-2.53377,7.53575 -13.70804,17.28101 -21.11444,20.65908c-0.84429,0.45448 -1.62392,0.71495 -2.0784,0.71495c0,0 0,-0.06556 -0.06556,-0.13023c-0.06467,-0.19491 -0.06467,-0.45448 -0.06467,-0.64939zM194.52555,219.88864c-2.0784,1.55924 -5.84716,4.87263 -7.73065,7.27617c2.92358,-2.07929 5.58669,-4.28792 7.99112,-6.95192c0.06467,-0.06467 0.12935,-0.19491 0.25958,-0.25958c0.13023,-0.13023 0.38981,-0.45448 0.38981,-0.58472c-0.06467,0.06556 -0.19491,0.13023 -0.32514,0.19491c-0.19491,0.06556 -0.38981,0.19491 -0.58472,0.32514zM417.10297,229.04919c1.49457,0 5.06754,-2.59933 5.19777,-3.89811c0.06467,-0.71495 -0.58472,-1.81971 -1.42901,-1.81971c-1.81971,0 -4.41815,2.59933 -4.61305,4.35348c-0.06467,0.58472 -0.06467,1.36434 0.84429,1.36434zM362.27079,229.76325c-2.01373,0 -4.93731,2.33886 -6.49655,3.57385v0.12935c0.13023,0.13023 0.25958,0.13023 0.32514,0.13023c1.36434,0 3.7032,-1.36434 4.7424,-2.27419c0.06467,-0.12935 0.45448,-0.45448 0.84429,-0.84429l0.45537,-0.45448c0.06467,-0.13023 0.06467,-0.19491 0.12935,-0.26046zM300.22712,236.2598c0.38981,-0.71406 1.29966,-1.68859 1.88438,-2.33798c0.32514,-0.32514 0.64939,-0.58472 1.0392,-0.84518c0.32514,-0.32425 0.71495,-0.58472 1.04009,-0.90897c0.97453,-0.84518 2.01373,-1.04009 3.31339,-1.04009h0.64939c0.19491,0 0.32425,0.06556 0.45448,0.06556c-0.25958,0.51916 -0.64939,0.58472 -0.97453,0.64939h-0.32425c-0.06556,0.06467 -0.13023,0.06467 -0.26046,0.06467c-0.19491,0.06556 -0.38981,0.19491 -0.38981,0.52004c0,0.19491 0.06556,0.32514 0.06556,0.52004c0,0.06467 0,0.12935 -0.13023,0.25958c-1.68947,1.16943 -4.41815,2.66312 -6.43187,3.18316c0,-0.06467 0.06467,-0.13023 0.06467,-0.13023zM424.18512,233.92182c-0.58472,0.64939 -1.49457,1.62392 -1.88438,2.33798c0,0 -0.06467,0.06556 -0.06467,0.13023c2.01373,-0.52004 4.7424,-2.01373 6.43099,-3.18316c0.13023,-0.13023 0.13023,-0.19491 0.13023,-0.25958c0,-0.19491 -0.06467,-0.32514 -0.06467,-0.52004c0,-0.32514 0.19491,-0.45448 0.38981,-0.52004c0.12935,0 0.19491,0 0.25958,-0.06467h0.32514c0.32425,-0.06467 0.71406,-0.13023 0.97453,-0.64939c-0.13023,0 -0.26046,-0.06556 -0.45537,-0.06556h-0.64939c-1.29966,0 -2.33886,0.19491 -3.31339,1.04009c-0.32425,0.32425 -0.71406,0.58472 -1.0392,0.90897c-0.38981,0.26046 -0.71495,0.52004 -1.0392,0.84518zM272.9457,256.11533c0,2.40885 -0.84784,3.41616 -2.65869,3.41616c-1.80199,0 -2.64894,-1.00731 -2.64894,-3.41616v-0.35703c0,-2.40797 0.84695,-3.41616 2.64894,-3.41616c1.81085,0 2.65869,1.00819 2.65869,3.41616zM316.7985,259.53149c1.81085,0 2.6578,-1.00731 2.6578,-3.41616v-0.35703c0,-2.40797 -0.84695,-3.41616 -2.6578,-3.41616c-1.80199,0 -2.64983,1.00819 -2.64983,3.41616v0.35703c0,2.40885 0.84784,3.41616 2.64983,3.41616zM213.54654,252.44048l-1.73909,6.97495h1.55215l0.32957,-1.49811h1.70365l0.33931,1.49811h1.5433l-1.73997,-6.97495zM229.48625,259.41543v-1.24828h-2.56921v-5.70895h-1.44496v6.95723zM241.13804,258.16715v1.24828h-4.01416v-6.95723h1.44496v5.70895zM255.3803,252.4582v6.95723h1.44496v-2.92535h2.32823v-1.24917h-2.32823v-1.53444h2.77386v-1.24828zM283.19506,256.91799h0.73975l0.95504,2.49745h1.56101l-1.09767,-2.7021c0.62458,-0.25869 1.09767,-0.8124 1.09767,-1.93576v-0.17896c0,-1.84628 -1.2846,-2.14041 -2.41771,-2.14041h-2.28394v6.95723h1.44584zM306.23729,252.4582l-1.98892,4.82568v2.13156h-1.44496v-2.13156l-1.99867,-4.82568h1.57962l1.14108,3.04141l1.13311,-3.04141zM333.30521,257.21212c0,1.51672 -0.61572,2.31937 -2.50719,2.31937c-1.89058,0 -2.49745,-0.80266 -2.49745,-2.31937v-4.75392h1.44496v4.70962c0,0.74064 0.23211,1.11539 1.05249,1.11539c0.82126,0 1.06223,-0.37475 1.06223,-1.11539v-4.70962h1.44496zM269.10075,256.11533c0,1.3918 0.25869,2.16788 1.15083,2.16788h0.08062c0.89125,0 1.14108,-0.77608 1.14108,-2.16788v-0.35703c0,-1.39092 -0.24983,-2.16699 -1.14108,-2.16699h-0.08062c-0.89213,0 -1.15083,0.77608 -1.15083,2.16699zM316.76218,258.28321c-0.89213,0 -1.15083,-0.77608 -1.15083,-2.16788v-0.35703c0,-1.39092 0.25869,-2.16699 1.15083,-2.16699h0.08062c0.89213,0 1.14197,0.77608 1.14197,2.16699v0.35703c0,1.3918 -0.24983,2.16788 -1.14197,2.16788zM283.19506,255.66971v-1.96323h0.90099c0.39247,0 0.89125,0.15238 0.89125,0.93732v0.08859c0,0.78494 -0.49878,0.93732 -0.89125,0.93732zM214.53701,254.10869l0.57054,2.55946h-1.14197z"
                    data-paper-data="{&quot;isBaseLogoContainer&quot;:true}"
                    style="fill: rgb(255, 255, 255);"></path>
            </g>
        </g>
    </g>
    <g class="watermark-group"
        style="opacity:0.10; stroke: white; stroke-width: 2; stroke-opacity: 0.7;">
        <path class="watermark-path"
            d="M129.52,370.3a11.88,11.88,0,0,1,2.58,5.58,12,12,0,0,1,.11,3,11.81,11.81,0,0,1-.64,2.93,12.34,12.34,0,0,1-1.41,2.72,11.65,11.65,0,0,1-2.13,2.32,12,12,0,0,1-2.64,1.69,13,13,0,0,1-2.91.9,12.47,12.47,0,0,1-3,.12,12.17,12.17,0,0,1-2.93-.64,11.8,11.8,0,0,1-2.72-1.38,12.19,12.19,0,0,1-4-4.79,11.85,11.85,0,0,1-.89-2.92,12.14,12.14,0,0,1-.13-3,11.54,11.54,0,0,1,.64-2.92,11.67,11.67,0,0,1,3.5-5,11.44,11.44,0,0,1,2.67-1.69,11.64,11.64,0,0,1,2.92-.91,10.71,10.71,0,0,1,3-.12,11.68,11.68,0,0,1,5.66,2,11.7,11.7,0,0,1,2.34,2.12m-1.4,8.76a13,13,0,0,1-1.22,2.32,9.68,9.68,0,0,1-1.81,2,7.44,7.44,0,0,1-2.38,1.37,6.17,6.17,0,0,1-5.11-.46,8.73,8.73,0,0,1-3.85-4.58,6.69,6.69,0,0,1-.34-2.66,6.09,6.09,0,0,1,.77-2.47,7.15,7.15,0,0,1,1.75-2.11,9.58,9.58,0,0,1,1.09-.81,8.23,8.23,0,0,1,1.12-.63,8.14,8.14,0,0,1,1.19-.46,12.71,12.71,0,0,1,1.32-.37l2,2.38a12.83,12.83,0,0,0-1.56.17,7.86,7.86,0,0,0-1.23.32,4.5,4.5,0,0,0-1,.49,6.41,6.41,0,0,0-.93.67,4.49,4.49,0,0,0-1.15,1.39,3.87,3.87,0,0,0-.45,1.58,4.12,4.12,0,0,0,.26,1.63,6.11,6.11,0,0,0,2.36,2.82,4.43,4.43,0,0,0,1.57.53,3.91,3.91,0,0,0,1.62-.17,4.71,4.71,0,0,0,1.57-.89,10.5,10.5,0,0,0,.83-.79,5.71,5.71,0,0,0,.65-.93,10.13,10.13,0,0,0,.54-1.14,12.24,12.24,0,0,0,.44-1.49l2,2.33m-14.46,4.55a8.86,8.86,0,0,0,2.78,2.22,9,9,0,0,0,3.29.94,9.15,9.15,0,0,0,3.39-.37,8.68,8.68,0,0,0,3.11-1.69,8.8,8.8,0,0,0,2.22-2.78,9.15,9.15,0,0,0,1-3.29,8.95,8.95,0,0,0-4.83-8.76,9,9,0,0,0-6.73-.57,9,9,0,0,0-5.33,4.47,8.94,8.94,0,0,0-.57,6.71,8.76,8.76,0,0,0,1.7,3.12"
            style="fill: rgb(255, 255, 255);"></path>
        <path class="watermark-path"
            d="M147,349c-.48.12-1.09.31-1.82.57a24.37,24.37,0,0,0-2.4,1A28.35,28.35,0,0,0,140,352a20.72,20.72,0,0,0-2.71,1.94c-.7.59-1.28,1.11-1.74,1.57a15.07,15.07,0,0,0-1.1,1.22,4.09,4.09,0,0,0-.59.92,2.32,2.32,0,0,0-.22.64,1.16,1.16,0,0,0,0,.47,1.83,1.83,0,0,0,.18.29,1.15,1.15,0,0,0,1,.37,5.54,5.54,0,0,0,1.51-.38q.87-.35,1.95-.9l2.26-1.18q1.2-.65,2.49-1.29c.87-.44,1.73-.83,2.59-1.17a18.94,18.94,0,0,1,2.6-.81,9.27,9.27,0,0,1,2.46-.29,6.25,6.25,0,0,1,2.24.49,5.12,5.12,0,0,1,1.89,1.47,6.35,6.35,0,0,1,1.41,2.61,6,6,0,0,1,.09,2.6,8.3,8.3,0,0,1-.9,2.52,17.79,17.79,0,0,1-1.62,2.37,23.92,23.92,0,0,1-2,2.15c-.72.67-1.41,1.29-2.09,1.87a33.79,33.79,0,0,1-5.33,3.7,32.29,32.29,0,0,1-4.91,2.28l-3.61-4.3a21.38,21.38,0,0,0,5.39-1.87,27.2,27.2,0,0,0,5.4-3.56,21.59,21.59,0,0,0,2.38-2.27,8.67,8.67,0,0,0,1.18-1.7,2.32,2.32,0,0,0,.27-1.19,1.34,1.34,0,0,0-.28-.74,1.21,1.21,0,0,0-1-.42,4.32,4.32,0,0,0-1.55.34,15.77,15.77,0,0,0-2,.88c-.72.37-1.48.77-2.27,1.21l-2.45,1.3c-.85.45-1.7.85-2.56,1.21a22.37,22.37,0,0,1-2.54.86,10,10,0,0,1-2.43.32,5.76,5.76,0,0,1-2.2-.45,5,5,0,0,1-1.89-1.45,6.12,6.12,0,0,1-1.31-2.41,6,6,0,0,1-.1-2.41,8.28,8.28,0,0,1,.81-2.38,14.06,14.06,0,0,1,1.49-2.24,22.37,22.37,0,0,1,1.85-2.05q1-1,2-1.77c.7-.59,1.44-1.15,2.23-1.7s1.62-1.06,2.44-1.53,1.63-.91,2.43-1.3,1.58-.75,2.3-1L147,349"
            style="fill: rgb(255, 255, 255);"></path>
        <path class="watermark-path"
            d="M186.76,337.57l-10.6-12.63,3.92,18.24-4.66,3.91-17.27-7,10.6,12.63-4.86,4.07-15.09-18,6.59-5.54,18.69,7.52-4.15-19.71,6.57-5.52,15.09,18-4.83,4.05"
            style="fill: rgb(255, 255, 255);"></path>
        <path class="watermark-path"
            d="M208.84,313.24l-10,8.42,1.16,4.82L194.56,331l-5.68-25.89,5.42-4.55,24.51,10.09-5.42,4.55-4.55-2m-11.23,3.45,6.57-5.52-8.83-3.87,2.26,9.39"
            style="fill: rgb(255, 255, 255);"></path>
        <path class="watermark-path"
            d="M227.49,281.38c-.48.12-1.09.31-1.82.57a24.37,24.37,0,0,0-2.4,1,26.11,26.11,0,0,0-2.7,1.47,20.72,20.72,0,0,0-2.71,1.94c-.7.59-1.28,1.11-1.74,1.57a13.39,13.39,0,0,0-1.1,1.22,4.29,4.29,0,0,0-.59.91,2.48,2.48,0,0,0-.22.65,1.16,1.16,0,0,0,0,.47,1.83,1.83,0,0,0,.18.29,1.15,1.15,0,0,0,1,.37,5.54,5.54,0,0,0,1.51-.38q.87-.34,2-.9l2.26-1.18q1.2-.64,2.49-1.29c.87-.44,1.73-.83,2.59-1.17a18.94,18.94,0,0,1,2.6-.81,9.27,9.27,0,0,1,2.46-.29,6.08,6.08,0,0,1,2.24.49,5.09,5.09,0,0,1,1.89,1.46,6.47,6.47,0,0,1,1.41,2.61,6.07,6.07,0,0,1,.09,2.61,8.3,8.3,0,0,1-.9,2.52,16.32,16.32,0,0,1-1.63,2.36,21.41,21.41,0,0,1-2,2.16c-.72.67-1.41,1.29-2.1,1.86a33.36,33.36,0,0,1-5.32,3.71,31.92,31.92,0,0,1-4.92,2.28l-3.6-4.3a21.38,21.38,0,0,0,5.39-1.87,27.2,27.2,0,0,0,5.4-3.56,21.59,21.59,0,0,0,2.38-2.27,8.67,8.67,0,0,0,1.18-1.7A2.32,2.32,0,0,0,231,293a1.34,1.34,0,0,0-.28-.74,1.21,1.21,0,0,0-1-.42,4.32,4.32,0,0,0-1.55.34,16.54,16.54,0,0,0-2,.88c-.71.37-1.47.77-2.26,1.21l-2.46,1.3c-.84.44-1.7.85-2.55,1.21a24.53,24.53,0,0,1-2.54.86A10,10,0,0,1,214,298a5.76,5.76,0,0,1-2.2-.45,5,5,0,0,1-1.89-1.45,6.12,6.12,0,0,1-1.31-2.41,5.78,5.78,0,0,1-.1-2.41,8,8,0,0,1,.81-2.38,14.61,14.61,0,0,1,1.49-2.25,22.26,22.26,0,0,1,1.85-2q1-1,2-1.77c.7-.59,1.44-1.15,2.23-1.7s1.62-1.06,2.44-1.53,1.63-.91,2.43-1.31,1.58-.74,2.3-1l3.5,4.16"
            style="fill: rgb(255, 255, 255);"></path>
        <path class="watermark-path"
            d="M261.64,274.74l-6.29-7.5L243,277.61l6.3,7.5-4.86,4.07-15.09-18,4.85-4.08,5.49,6.55L252,263.3l-5.49-6.55,4.86-4.07,15.09,18-4.86,4.08"
            style="fill: rgb(255, 255, 255);"></path>
        <path class="watermark-path" d="M272.18,265.9l-15.09-18,4.86-4.08,15.09,18-4.86,4.08"
            style="fill: rgb(255, 255, 255);"></path>
        <path class="watermark-path"
            d="M299.65,242.85l-22.51-2.18L287.51,253l-4.85,4.08-15.1-18,5.28-4.43,22.56,2.22L285,224.5l4.83-4.06,15.09,18-5.26,4.42"
            style="fill: rgb(255, 255, 255);"></path>
        <path class="watermark-path"
            d="M306.68,205.52a31.88,31.88,0,0,1,5.29-3.66,34.48,34.48,0,0,1,5.14-2.35l3.69,4.39a20.77,20.77,0,0,0-2.37.61,20.47,20.47,0,0,0-2.61,1,25.12,25.12,0,0,0-2.76,1.49,23.9,23.9,0,0,0-2.8,2,20.42,20.42,0,0,0-2.8,2.77,12.77,12.77,0,0,0-1.64,2.52,7,7,0,0,0-.68,2.24,6,6,0,0,0,.66,3.64,8.16,8.16,0,0,0,.94,1.38,9.12,9.12,0,0,0,1.08,1.07,6.39,6.39,0,0,0,1.47.91,6.73,6.73,0,0,0,1.88.48,6.54,6.54,0,0,0,2.28-.18,11.67,11.67,0,0,0,2.74-1.07,19.38,19.38,0,0,0,3.18-2.22c.57-.48,1.06-.92,1.46-1.31a14.57,14.57,0,0,0,1-1.13,11.46,11.46,0,0,0,.81-1.05l.74-1.09-1.82-2.17-5.45,4.57-3.31-3.94,10.31-8.65,7.71,9.19a29,29,0,0,1-1.67,2.43q-1,1.26-2.1,2.52c-.74.84-1.5,1.65-2.3,2.44s-1.58,1.5-2.33,2.14a31,31,0,0,1-3.59,2.61,22.55,22.55,0,0,1-3.64,1.83,15.64,15.64,0,0,1-3.63.89,10.72,10.72,0,0,1-3.49-.15,10.45,10.45,0,0,1-3.28-1.33,12.54,12.54,0,0,1-3-2.67,12,12,0,0,1-2.08-3.44,10.45,10.45,0,0,1-.71-3.5,11.14,11.14,0,0,1,.51-3.51,15.72,15.72,0,0,1,1.56-3.43,21.62,21.62,0,0,1,2.42-3.28,30.3,30.3,0,0,1,3.15-3"
            style="fill: rgb(255, 255, 255);"></path>
        <path class="watermark-path"
            d="M336.91,211.59l-15.1-18,4.86-4.08,11.79,14,13.13-11,3.31,3.94-18,15.1"
            style="fill: rgb(255, 255, 255);"></path>
        <path class="watermark-path"
            d="M374.54,164.71a12.28,12.28,0,0,1,2.59,4.81,10.44,10.44,0,0,1,0,5,14.62,14.62,0,0,1-2.33,5,25.55,25.55,0,0,1-4.56,4.85,26.07,26.07,0,0,1-5.6,3.67,14.79,14.79,0,0,1-5.38,1.43,10.43,10.43,0,0,1-4.94-.89,13.24,13.24,0,0,1-6.87-8.18,10.48,10.48,0,0,1,0-5,14.51,14.51,0,0,1,2.36-5,25.23,25.23,0,0,1,4.57-4.89,25,25,0,0,1,5.59-3.64,14.45,14.45,0,0,1,5.35-1.43,10.31,10.31,0,0,1,4.93.92,12.22,12.22,0,0,1,4.28,3.38m-4.91,4.11a8.36,8.36,0,0,0-2-1.72,5.5,5.5,0,0,0-2.65-.85,7.72,7.72,0,0,0-3.32.57,14.49,14.49,0,0,0-4,2.52,16.72,16.72,0,0,0-2.38,2.4,10.15,10.15,0,0,0-1.39,2.24,6.71,6.71,0,0,0-.56,2.1,5.69,5.69,0,0,0,.1,1.9,6.21,6.21,0,0,0,.61,1.69,9.85,9.85,0,0,0,1,1.44,10.48,10.48,0,0,0,1.26,1.23,6.67,6.67,0,0,0,1.57.92,6.1,6.1,0,0,0,1.85.41,6.8,6.8,0,0,0,2.15-.2,11.06,11.06,0,0,0,2.45-1,17.67,17.67,0,0,0,2.77-1.94,14.39,14.39,0,0,0,3.18-3.52,7.74,7.74,0,0,0,1.14-3.17,5.54,5.54,0,0,0-.37-2.74,8.52,8.52,0,0,0-1.36-2.3"
            style="fill: rgb(255, 255, 255);"></path>
        <path class="watermark-path"
            d="M382.66,141.76A32.3,32.3,0,0,1,388,138.1a34.12,34.12,0,0,1,5.15-2.35l3.69,4.4a19.62,19.62,0,0,0-2.37.6,22.08,22.08,0,0,0-2.61,1,26,26,0,0,0-2.77,1.49,23.9,23.9,0,0,0-2.8,2,21,21,0,0,0-2.8,2.78,13.19,13.19,0,0,0-1.64,2.51,7.29,7.29,0,0,0-.68,2.24,6.36,6.36,0,0,0,.06,2,5.8,5.8,0,0,0,.61,1.68,8.12,8.12,0,0,0,.93,1.38,9.16,9.16,0,0,0,1.08,1.08,6.56,6.56,0,0,0,1.48.9,6,6,0,0,0,1.87.48,6.76,6.76,0,0,0,2.28-.17,12,12,0,0,0,2.74-1.08,18.57,18.57,0,0,0,3.18-2.22c.58-.48,1.06-.92,1.46-1.31s.75-.77,1.05-1.12.57-.72.81-1.06l.73-1.09-1.82-2.17-5.45,4.57-3.3-3.94,10.3-8.65,7.71,9.19a29,29,0,0,1-1.67,2.43q-1,1.26-2.1,2.52c-.73.84-1.5,1.66-2.3,2.44s-1.57,1.5-2.33,2.14a31,31,0,0,1-3.59,2.61,22.15,22.15,0,0,1-3.64,1.83,15.56,15.56,0,0,1-3.62.89,11,11,0,0,1-3.49-.14,10.84,10.84,0,0,1-3.28-1.33,12.82,12.82,0,0,1-3-2.68,12.12,12.12,0,0,1-2.08-3.43A10.71,10.71,0,0,1,375,155a11.18,11.18,0,0,1,.51-3.51,15.51,15.51,0,0,1,1.57-3.43,21.44,21.44,0,0,1,2.42-3.28,30.19,30.19,0,0,1,3.14-3"
            style="fill: rgb(255, 255, 255);"></path>
        <path class="watermark-path"
            d="M428.63,119.31a12.26,12.26,0,0,1,2.59,4.82,10.44,10.44,0,0,1,0,5,14.53,14.53,0,0,1-2.34,5,25.29,25.29,0,0,1-4.56,4.86,26,26,0,0,1-5.59,3.67,14.84,14.84,0,0,1-5.38,1.43,10.61,10.61,0,0,1-4.95-.89,12.15,12.15,0,0,1-4.3-3.37,12,12,0,0,1-2.56-4.81,10.48,10.48,0,0,1,0-5,14.39,14.39,0,0,1,2.35-5,27.89,27.89,0,0,1,10.16-8.53,14.49,14.49,0,0,1,5.36-1.43,10.27,10.27,0,0,1,4.92.92,12.21,12.21,0,0,1,4.28,3.37m-4.91,4.12a8.17,8.17,0,0,0-2-1.72,5.58,5.58,0,0,0-2.65-.86,7.86,7.86,0,0,0-3.31.58,14.49,14.49,0,0,0-4,2.52,16.21,16.21,0,0,0-2.38,2.4,9.85,9.85,0,0,0-1.4,2.24,7,7,0,0,0-.56,2.1,6,6,0,0,0,.1,1.9,6.23,6.23,0,0,0,.62,1.69,8.49,8.49,0,0,0,1,1.44,9.18,9.18,0,0,0,1.26,1.23,6.67,6.67,0,0,0,1.57.92,6,6,0,0,0,1.84.41,6.86,6.86,0,0,0,2.16-.2,11.26,11.26,0,0,0,2.45-1,17.62,17.62,0,0,0,2.76-1.94,14.67,14.67,0,0,0,3.19-3.52,7.71,7.71,0,0,0,1.13-3.17,5.53,5.53,0,0,0-.36-2.74,8.55,8.55,0,0,0-1.37-2.3"
            style="fill: rgb(255, 255, 255);"></path>
    </g>
</svg>