<svg xmlns:mydata="http://www.w3.org/2000/svg" mydata:contrastcolor="ffffff"
    mydata:template="Contrast" mydata:presentation="2.5" mydata:layouttype="undefined"
    mydata:specialfontid="undefined" mydata:id1="812" mydata:id2="027"
    mydata:companyname="casino offers" mydata:companytagline="All For You" version="1.1"
    xmlns="http://www.w3.org/2000/svg" xmlns:xlink="http://www.w3.org/1999/xlink"
    viewBox="64.99999999999999 213.12165727059298 420 43.75668545881402" class="watermark-logo">
    <g fill="#5e8ab4" fill-rule="nonzero" stroke="none" stroke-width="1" stroke-linecap="butt"
        stroke-linejoin="miter" stroke-miterlimit="10" stroke-dasharray="" stroke-dashoffset="0"
        font-family="none" font-weight="none" font-size="none" text-anchor="none"
        style="mix-blend-mode: normal">
        <g
            data-paper-data="{&quot;isGlobalGroup&quot;:true,&quot;bounds&quot;:{&quot;x&quot;:64.99999999999999,&quot;y&quot;:213.12165727059298,&quot;width&quot;:420,&quot;height&quot;:43.75668545881402}}">
            <g data-paper-data="{&quot;isSecondaryText&quot;:true}">
                <path
                    d="M173.95273,250.89559l-1.08419,3.16879h2.18809l-1.07926,-3.16879zM177.16587,255.21263c0.023,0.05914 0.04764,0.12074 0.07392,0.1848c0.02628,0.06407 0.05092,0.12895 0.07392,0.19466c0.023,0.06571 0.04189,0.12895 0.05667,0.18973c0.01478,0.06078 0.02218,0.11581 0.02218,0.16509c0,0.12156 -0.02218,0.22916 -0.06653,0.32279c-0.04435,0.09363 -0.10431,0.17248 -0.17988,0.23655c-0.07556,0.06407 -0.16345,0.11335 -0.26366,0.14784c-0.10021,0.0345 -0.20616,0.05175 -0.31786,0.05175c-0.12813,0 -0.23819,-0.01807 -0.33018,-0.05421c-0.09199,-0.03614 -0.17413,-0.09363 -0.24641,-0.17248c-0.07228,-0.07885 -0.13881,-0.18152 -0.19959,-0.30801c-0.06078,-0.12649 -0.12567,-0.28172 -0.19466,-0.46571l-0.23655,-0.62587h-2.78932l-0.20205,0.62587c-0.05914,0.18727 -0.1191,0.34497 -0.17988,0.4731c-0.06078,0.12813 -0.12813,0.2308 -0.20205,0.30801c-0.07392,0.07721 -0.15852,0.13306 -0.2538,0.16756c-0.09528,0.0345 -0.20698,0.05175 -0.33511,0.05175c-0.1117,0 -0.21766,-0.01725 -0.31786,-0.05175c-0.10021,-0.0345 -0.18809,-0.08378 -0.26366,-0.14784c-0.07556,-0.06407 -0.13552,-0.14292 -0.17988,-0.23655c-0.04435,-0.09363 -0.06653,-0.20123 -0.06653,-0.32279c0,-0.04928 0.00739,-0.10431 0.02218,-0.16509c0.01478,-0.06078 0.03368,-0.12402 0.05667,-0.18973c0.023,-0.06571 0.04764,-0.1306 0.07392,-0.19466c0.02628,-0.06407 0.05092,-0.12567 0.07392,-0.1848l1.32567,-3.58275c0.12485,-0.33511 0.24394,-0.63162 0.35729,-0.88953c0.11335,-0.25791 0.23819,-0.47556 0.37454,-0.65298c0.13635,-0.17741 0.29322,-0.31129 0.47064,-0.40164c0.17741,-0.09035 0.39261,-0.13552 0.64559,-0.13552c0.23655,0 0.4386,0.03532 0.60616,0.10595c0.16756,0.07064 0.31869,0.18727 0.45339,0.3499c0.1347,0.16263 0.26283,0.377 0.38439,0.64312c0.12156,0.26612 0.25626,0.59302 0.40411,0.9807z"
                    data-paper-data="{&quot;glyphName&quot;:&quot;A&quot;,&quot;glyphIndex&quot;:0,&quot;firstGlyphOfWord&quot;:true,&quot;word&quot;:1}"
                    style="fill: rgb(255, 255, 255);"></path>
                <path
                    d="M190.87241,255.39497c0.08871,0 0.17331,0.01725 0.2538,0.05175c0.08049,0.0345 0.15031,0.08131 0.20945,0.14045c0.05914,0.05914 0.10595,0.12895 0.14045,0.20945c0.0345,0.08049 0.05175,0.16509 0.05175,0.2538c0,0.08871 -0.01725,0.17331 -0.05175,0.2538c-0.0345,0.08049 -0.08131,0.15031 -0.14045,0.20945c-0.05914,0.05914 -0.12895,0.10595 -0.20945,0.14045c-0.08049,0.0345 -0.16509,0.05175 -0.2538,0.05175h-3.37577c-0.17741,0 -0.32526,-0.0386 -0.44353,-0.11581c-0.11828,-0.07721 -0.21273,-0.17906 -0.28337,-0.30554c-0.07064,-0.12649 -0.11992,-0.27023 -0.14784,-0.43121c-0.02793,-0.16099 -0.04189,-0.32526 -0.04189,-0.49281v-4.85421c0,-0.1347 0.02382,-0.26037 0.07146,-0.377c0.04764,-0.11663 0.11253,-0.21848 0.19466,-0.30554c0.08214,-0.08706 0.17823,-0.15524 0.2883,-0.20452c0.11006,-0.04928 0.22916,-0.07392 0.35729,-0.07392c0.12813,0 0.24723,0.02464 0.35729,0.07392c0.11006,0.04928 0.20698,0.11745 0.29076,0.20452c0.08378,0.08706 0.14949,0.18891 0.19713,0.30554c0.04764,0.11663 0.07146,0.2423 0.07146,0.377l0.00493,4.88871z"
                    data-paper-data="{&quot;glyphName&quot;:&quot;L&quot;,&quot;glyphIndex&quot;:1,&quot;word&quot;:1}"
                    style="fill: rgb(255, 255, 255);"></path>
                <path
                    d="M204.18023,255.39497c0.08871,0 0.17331,0.01725 0.2538,0.05175c0.08049,0.0345 0.15031,0.08131 0.20945,0.14045c0.05914,0.05914 0.10595,0.12895 0.14045,0.20945c0.0345,0.08049 0.05175,0.16509 0.05175,0.2538c0,0.08871 -0.01725,0.17331 -0.05175,0.2538c-0.0345,0.08049 -0.08131,0.15031 -0.14045,0.20945c-0.05914,0.05914 -0.12895,0.10595 -0.20945,0.14045c-0.08049,0.0345 -0.16509,0.05175 -0.2538,0.05175h-3.37577c-0.17741,0 -0.32526,-0.0386 -0.44353,-0.11581c-0.11828,-0.07721 -0.21273,-0.17906 -0.28337,-0.30554c-0.07064,-0.12649 -0.11992,-0.27023 -0.14784,-0.43121c-0.02793,-0.16099 -0.04189,-0.32526 -0.04189,-0.49281v-4.85421c0,-0.1347 0.02382,-0.26037 0.07146,-0.377c0.04764,-0.11663 0.11253,-0.21848 0.19466,-0.30554c0.08214,-0.08706 0.17823,-0.15524 0.2883,-0.20452c0.11006,-0.04928 0.22916,-0.07392 0.35729,-0.07392c0.12813,0 0.24723,0.02464 0.35729,0.07392c0.11006,0.04928 0.20698,0.11745 0.29076,0.20452c0.08378,0.08706 0.14949,0.18891 0.19713,0.30554c0.04764,0.11663 0.07146,0.2423 0.07146,0.377l0.00493,4.88871z"
                    data-paper-data="{&quot;glyphName&quot;:&quot;L&quot;,&quot;glyphIndex&quot;:2,&quot;lastGlyphOfWord&quot;:true,&quot;word&quot;:1}"
                    style="fill: rgb(255, 255, 255);"></path>
                <path
                    d="M226.00073,252.40853c0.08871,0 0.17166,0.01643 0.24887,0.04928c0.07721,0.03285 0.14538,0.07885 0.20452,0.13799c0.05914,0.05914 0.10513,0.12731 0.13799,0.20452c0.03285,0.07721 0.04928,0.16016 0.04928,0.24887c0,0.08871 -0.01643,0.17166 -0.04928,0.24887c-0.03285,0.07721 -0.07885,0.14456 -0.13799,0.20205c-0.05914,0.05749 -0.12731,0.10267 -0.20452,0.13552c-0.07721,0.03285 -0.16016,0.04928 -0.24887,0.04928h-2.22752l-0.00493,2.05996c0,0.1347 -0.02382,0.26037 -0.07146,0.377c-0.04764,0.11663 -0.11335,0.21848 -0.19713,0.30554c-0.08378,0.08706 -0.1807,0.15524 -0.29076,0.20452c-0.11006,0.04928 -0.22916,0.07392 -0.35729,0.07392c-0.12813,0 -0.24723,-0.02464 -0.35729,-0.07392c-0.11006,-0.04928 -0.20616,-0.11745 -0.2883,-0.20452c-0.08214,-0.08706 -0.14702,-0.18891 -0.19466,-0.30554c-0.04764,-0.11663 -0.07146,-0.2423 -0.07146,-0.377v-5.28296c0,-0.1577 0.03121,-0.29405 0.09363,-0.40904c0.06242,-0.11499 0.1462,-0.20945 0.25133,-0.28337c0.10513,-0.07392 0.22834,-0.12895 0.36961,-0.16509c0.14127,-0.03614 0.28912,-0.05421 0.44353,-0.05421h3.05544c0.08871,0 0.17166,0.01725 0.24887,0.05175c0.07721,0.0345 0.14538,0.08049 0.20452,0.13799c0.05914,0.05749 0.10513,0.12567 0.13799,0.20452c0.03285,0.07885 0.04928,0.16263 0.04928,0.25133c0,0.08871 -0.01643,0.17166 -0.04928,0.24887c-0.03285,0.07721 -0.07885,0.14456 -0.13799,0.20205c-0.05914,0.05749 -0.12731,0.10267 -0.20452,0.13552c-0.07721,0.03285 -0.16016,0.04928 -0.24887,0.04928h-2.38029v1.577z"
                    data-paper-data="{&quot;glyphName&quot;:&quot;F&quot;,&quot;glyphIndex&quot;:3,&quot;firstGlyphOfWord&quot;:true,&quot;word&quot;:2}"
                    style="fill: rgb(255, 255, 255);"></path>
                <path
                    d="M237.43296,253.13296c0,0.81478 0.12977,1.42998 0.38932,1.84559c0.25955,0.41561 0.6653,0.62341 1.21725,0.62341c0.54209,0 0.9462,-0.20698 1.21232,-0.62094c0.26612,-0.41396 0.39918,-1.02998 0.39918,-1.84805c0,-0.39425 -0.03203,-0.74497 -0.0961,-1.05216c-0.06407,-0.30719 -0.16181,-0.56591 -0.29322,-0.77618c-0.13142,-0.21027 -0.29815,-0.37043 -0.50021,-0.48049c-0.20205,-0.11006 -0.44271,-0.16509 -0.72197,-0.16509c-0.27598,0 -0.51499,0.05503 -0.71704,0.16509c-0.20205,0.11006 -0.36879,0.27023 -0.50021,0.48049c-0.13142,0.21027 -0.22916,0.46899 -0.29322,0.77618c-0.06407,0.30719 -0.0961,0.65791 -0.0961,1.05216zM235.51592,253.13296c0,-0.54209 0.0731,-1.04312 0.2193,-1.50308c0.1462,-0.45996 0.3655,-0.85585 0.65791,-1.18768c0.2924,-0.33183 0.65873,-0.59138 1.09897,-0.77864c0.44025,-0.18727 0.95606,-0.2809 1.54743,-0.2809c0.57495,0 1.08255,0.09035 1.52279,0.27105c0.44025,0.1807 0.80821,0.43614 1.1039,0.76632c0.29569,0.33018 0.5191,0.72526 0.67023,1.18522c0.15113,0.45996 0.22669,0.9692 0.22669,1.52772c0,0.54867 -0.07392,1.05298 -0.22177,1.51294c-0.14784,0.45996 -0.36961,0.85503 -0.6653,1.18522c-0.29569,0.33018 -0.66366,0.58727 -1.1039,0.77125c-0.44025,0.18398 -0.95113,0.27598 -1.53265,0.27598c-0.56838,0 -1.07187,-0.08871 -1.51047,-0.26612c-0.4386,-0.17741 -0.80739,-0.42957 -1.10637,-0.75647c-0.29897,-0.3269 -0.52485,-0.72033 -0.67762,-1.18029c-0.15277,-0.45996 -0.22916,-0.97413 -0.22916,-1.54251z"
                    data-paper-data="{&quot;glyphName&quot;:&quot;O&quot;,&quot;glyphIndex&quot;:4,&quot;word&quot;:2}"
                    style="fill: rgb(255, 255, 255);"></path>
                <path
                    d="M254.18914,255.74487c0,0.1347 -0.02382,0.26037 -0.07146,0.377c-0.04764,0.11663 -0.11335,0.21848 -0.19713,0.30554c-0.08378,0.08706 -0.1807,0.15524 -0.29076,0.20452c-0.11006,0.04928 -0.22916,0.07392 -0.35729,0.07392c-0.12813,0 -0.24723,-0.02464 -0.35729,-0.07392c-0.11006,-0.04928 -0.20616,-0.11745 -0.2883,-0.20452c-0.08214,-0.08706 -0.14702,-0.18891 -0.19466,-0.30554c-0.04764,-0.11663 -0.07146,-0.2423 -0.07146,-0.377v-5.29281c0,-0.15113 0.03039,-0.28337 0.09117,-0.39671c0.06078,-0.11335 0.14209,-0.2078 0.24394,-0.28337c0.10185,-0.07556 0.22094,-0.13224 0.35729,-0.17002c0.13635,-0.03778 0.28008,-0.05667 0.43121,-0.05667h1.97618c0.36468,0 0.71458,0.02382 1.04969,0.07146c0.33511,0.04764 0.62998,0.13717 0.8846,0.26858c0.25462,0.13142 0.45832,0.31376 0.61109,0.54702c0.15277,0.23326 0.22916,0.53717 0.22916,0.9117c0,0.2037 -0.02793,0.39671 -0.08378,0.57906c-0.05585,0.18234 -0.1462,0.34661 -0.27105,0.49281c-0.12485,0.1462 -0.2883,0.27105 -0.49035,0.37454c-0.20205,0.10349 -0.44928,0.17988 -0.74168,0.22916v0.01971c0.21027,0.02628 0.39014,0.06489 0.53963,0.11581c0.14949,0.05092 0.2768,0.11828 0.38193,0.20205c0.10513,0.08378 0.19055,0.1848 0.25626,0.30308c0.06571,0.11828 0.11992,0.25791 0.16263,0.41889c0.04271,0.16099 0.07721,0.34415 0.10349,0.54949c0.02628,0.20534 0.05092,0.43778 0.07392,0.69733c0.00657,0.07228 0.0115,0.14209 0.01478,0.20945c0.00329,0.06735 0.00493,0.13388 0.00493,0.19959c0,0.14127 -0.01314,0.27105 -0.03943,0.38932c-0.02628,0.11828 -0.07228,0.22012 -0.13799,0.30554c-0.06571,0.08542 -0.15606,0.15195 -0.27105,0.19959c-0.11499,0.04764 -0.26283,0.07146 -0.44353,0.07146c-0.16427,0 -0.30144,-0.03778 -0.4115,-0.11335c-0.11006,-0.07556 -0.20123,-0.17906 -0.27351,-0.31047c-0.07228,-0.13142 -0.12731,-0.28337 -0.16509,-0.45585c-0.03778,-0.17248 -0.06817,-0.35729 -0.09117,-0.55441c-0.03285,-0.28583 -0.06653,-0.52485 -0.10103,-0.71704c-0.0345,-0.1922 -0.08953,-0.34743 -0.16509,-0.46571c-0.07556,-0.11828 -0.18316,-0.20205 -0.32279,-0.25133c-0.13963,-0.04928 -0.33101,-0.07392 -0.57413,-0.07392h-1.00041zM254.94807,252.61551c0.17741,0 0.35483,-0.01068 0.53224,-0.03203c0.17741,-0.02136 0.33758,-0.06571 0.48049,-0.13306c0.14292,-0.06735 0.25873,-0.16591 0.34743,-0.29569c0.08871,-0.12977 0.13306,-0.30308 0.13306,-0.51992c0,-0.24969 -0.04271,-0.43696 -0.12813,-0.56181c-0.08542,-0.12485 -0.19877,-0.21848 -0.34004,-0.2809c-0.14127,-0.06242 -0.30472,-0.10103 -0.49035,-0.11581c-0.18563,-0.01478 -0.37864,-0.02218 -0.57906,-0.02218h-0.74415v1.9614z"
                    data-paper-data="{&quot;glyphName&quot;:&quot;R&quot;,&quot;glyphIndex&quot;:5,&quot;lastGlyphOfWord&quot;:true,&quot;word&quot;:2}"
                    style="fill: rgb(255, 255, 255);"></path>
                <path
                    d="M278.51079,255.74487c-0.00329,0.1347 -0.02957,0.26037 -0.07885,0.377c-0.04928,0.11663 -0.11581,0.21848 -0.19959,0.30554c-0.08378,0.08706 -0.1807,0.15524 -0.29076,0.20452c-0.11006,0.04928 -0.22916,0.07392 -0.35729,0.07392c-0.12813,0 -0.24723,-0.02464 -0.35729,-0.07392c-0.11006,-0.04928 -0.20616,-0.11745 -0.2883,-0.20452c-0.08214,-0.08706 -0.14702,-0.18891 -0.19466,-0.30554c-0.04764,-0.11663 -0.07146,-0.2423 -0.07146,-0.377v-1.77906l-1.80862,-3.02095c-0.06242,-0.10185 -0.10678,-0.20123 -0.13306,-0.29815c-0.02628,-0.09692 -0.03943,-0.19138 -0.03943,-0.28337c0,-0.12156 0.02218,-0.23244 0.06653,-0.33265c0.04435,-0.10021 0.10349,-0.18645 0.17741,-0.25873c0.07392,-0.07228 0.15934,-0.12813 0.25626,-0.16756c0.09692,-0.03943 0.19795,-0.05914 0.30308,-0.05914c0.1577,0 0.3154,0.04928 0.4731,0.14784c0.1577,0.09856 0.29076,0.26119 0.39918,0.48789l1.2961,2.57741h0.01971l1.35031,-2.59713c0.1117,-0.21684 0.24312,-0.3729 0.39425,-0.46817c0.15113,-0.09528 0.3039,-0.14292 0.45832,-0.14292c0.09199,0 0.17988,0.01643 0.26366,0.04928c0.08378,0.03285 0.15688,0.07885 0.2193,0.13799c0.06242,0.05914 0.1117,0.13142 0.14784,0.21684c0.03614,0.08542 0.05421,0.17906 0.05421,0.2809c0,0.08542 -0.01314,0.17495 -0.03943,0.26858c-0.02628,0.09363 -0.07064,0.19138 -0.13306,0.29322l-1.88747,3.13922z"
                    data-paper-data="{&quot;glyphName&quot;:&quot;Y&quot;,&quot;glyphIndex&quot;:6,&quot;firstGlyphOfWord&quot;:true,&quot;word&quot;:3}"
                    style="fill: rgb(255, 255, 255);"></path>
                <path
                    d="M290.68064,253.13296c0,0.81478 0.12977,1.42998 0.38932,1.84559c0.25955,0.41561 0.6653,0.62341 1.21725,0.62341c0.54209,0 0.9462,-0.20698 1.21232,-0.62094c0.26612,-0.41396 0.39918,-1.02998 0.39918,-1.84805c0,-0.39425 -0.03203,-0.74497 -0.0961,-1.05216c-0.06407,-0.30719 -0.16181,-0.56591 -0.29322,-0.77618c-0.13142,-0.21027 -0.29815,-0.37043 -0.50021,-0.48049c-0.20205,-0.11006 -0.44271,-0.16509 -0.72197,-0.16509c-0.27598,0 -0.51499,0.05503 -0.71704,0.16509c-0.20205,0.11006 -0.36879,0.27023 -0.50021,0.48049c-0.13142,0.21027 -0.22916,0.46899 -0.29322,0.77618c-0.06407,0.30719 -0.0961,0.65791 -0.0961,1.05216zM288.7636,253.13296c0,-0.54209 0.0731,-1.04312 0.2193,-1.50308c0.1462,-0.45996 0.3655,-0.85585 0.65791,-1.18768c0.2924,-0.33183 0.65873,-0.59138 1.09897,-0.77864c0.44025,-0.18727 0.95606,-0.2809 1.54743,-0.2809c0.57495,0 1.08255,0.09035 1.52279,0.27105c0.44025,0.1807 0.80821,0.43614 1.1039,0.76632c0.29569,0.33018 0.5191,0.72526 0.67023,1.18522c0.15113,0.45996 0.22669,0.9692 0.22669,1.52772c0,0.54867 -0.07392,1.05298 -0.22177,1.51294c-0.14784,0.45996 -0.36961,0.85503 -0.6653,1.18522c-0.29569,0.33018 -0.66366,0.58727 -1.1039,0.77125c-0.44025,0.18398 -0.95113,0.27598 -1.53265,0.27598c-0.56838,0 -1.07187,-0.08871 -1.51047,-0.26612c-0.4386,-0.17741 -0.80739,-0.42957 -1.10637,-0.75647c-0.29897,-0.3269 -0.52485,-0.72033 -0.67762,-1.18029c-0.15277,-0.45996 -0.22916,-0.97413 -0.22916,-1.54251z"
                    data-paper-data="{&quot;glyphName&quot;:&quot;O&quot;,&quot;glyphIndex&quot;:7,&quot;word&quot;:3}"
                    style="fill: rgb(255, 255, 255);"></path>
                <path
                    d="M309.72036,250.50627c0,-0.1347 0.02382,-0.26037 0.07146,-0.377c0.04764,-0.11663 0.11253,-0.21848 0.19466,-0.30554c0.08214,-0.08706 0.17823,-0.15524 0.2883,-0.20452c0.11006,-0.04928 0.22916,-0.07392 0.35729,-0.07392c0.12813,0 0.24723,0.02464 0.35729,0.07392c0.11006,0.04928 0.20698,0.11745 0.29076,0.20452c0.08378,0.08706 0.14949,0.18891 0.19713,0.30554c0.04764,0.11663 0.07146,0.2423 0.07146,0.377v3.77495c0,0.43368 -0.07639,0.81232 -0.22916,1.13593c-0.15277,0.32361 -0.36632,0.59384 -0.64066,0.81068c-0.27433,0.21684 -0.60041,0.37947 -0.97823,0.48789c-0.37782,0.10842 -0.79179,0.16263 -1.24189,0.16263c-0.44353,0 -0.85339,-0.05339 -1.22957,-0.16016c-0.37618,-0.10678 -0.70144,-0.26694 -0.97577,-0.48049c-0.27433,-0.21355 -0.48871,-0.48296 -0.64312,-0.80821c-0.15441,-0.32526 -0.23162,-0.70801 -0.23162,-1.14825v-3.77495c0,-0.1347 0.02382,-0.26037 0.07146,-0.377c0.04764,-0.11663 0.11253,-0.21848 0.19466,-0.30554c0.08214,-0.08706 0.17823,-0.15524 0.2883,-0.20452c0.11006,-0.04928 0.22916,-0.07392 0.35729,-0.07392c0.12813,0 0.24723,0.02464 0.35729,0.07392c0.11006,0.04928 0.20698,0.11745 0.29076,0.20452c0.08378,0.08706 0.14949,0.18891 0.19713,0.30554c0.04764,0.11663 0.07146,0.2423 0.07146,0.377l0.00493,3.74538c0,0.23655 0.03614,0.44025 0.10842,0.61109c0.07228,0.17084 0.16674,0.31047 0.28337,0.41889c0.11663,0.10842 0.24969,0.18891 0.39918,0.24148c0.14949,0.05257 0.30144,0.07885 0.45585,0.07885c0.1577,0 0.31129,-0.02628 0.46078,-0.07885c0.14949,-0.05257 0.28337,-0.13306 0.40164,-0.24148c0.11828,-0.10842 0.21437,-0.24805 0.2883,-0.41889c0.07392,-0.17084 0.11088,-0.37454 0.11088,-0.61109z"
                    data-paper-data="{&quot;glyphName&quot;:&quot;U&quot;,&quot;glyphIndex&quot;:8,&quot;lastGlyphOfWord&quot;:true,&quot;word&quot;:3}"
                    style="fill: rgb(255, 255, 255);"></path>
            </g>
            <g data-paper-data="{&quot;isPrimaryText&quot;:true}">
                <path
                    d="M170.5671,226.45847c0,7.26505 5.89627,13.16133 13.16133,13.16133h5.86118c0,-2.14091 -1.71975,-3.86066 -3.86066,-3.86066h-2.00052c-5.15924,0 -9.30067,-4.14143 -9.30067,-9.30067c0,-5.15924 4.14143,-9.30067 9.30067,-9.30067h2.00052c2.14091,0 3.86066,-1.75484 3.86066,-3.86066h-5.86118c-7.26505,0 -13.16133,5.89627 -13.16133,13.16133z"
                    data-paper-data="{&quot;glyphName&quot;:&quot;C&quot;,&quot;glyphIndex&quot;:0,&quot;firstGlyphOfWord&quot;:true,&quot;word&quot;:1}"
                    style="fill: rgb(255, 255, 255);"></path>
                <path
                    d="M195.35134,232.28455h16.03927c-0.94762,-2.35149 -3.22891,-3.86066 -5.75589,-3.86066h-4.17653l4.98376,-10.24829l4.84337,10.21319c1.1582,2.42168 3.57988,3.93085 6.24724,3.93085l-9.05499,-19.02251h-4.10633zM195.42154,235.75914c0,2.14091 1.75484,3.86066 3.86066,3.86066h18.25037c0,-2.14091 -1.71975,-3.86066 -3.86066,-3.86066z"
                    data-paper-data="{&quot;glyphName&quot;:&quot;A&quot;,&quot;glyphIndex&quot;:1,&quot;word&quot;:1}"
                    style="fill: rgb(255, 255, 255);"></path>
                <path
                    d="M223.99624,239.6198h10.70455c4.10633,0 7.44054,-3.3693 7.44054,-7.44054c0,-4.14143 -3.3342,-7.44054 -7.44054,-7.44054h-2.87794c-2.03562,0 -3.86066,-1.57936 -3.86066,-3.61498c0,-0.28077 0,-1.088 0.0351,-1.33368h-3.89575c0,0.21058 0,0.94762 0,1.1582c-0.0351,4.24672 3.4044,7.65112 7.65112,7.65112h2.84285c1.96542,0 3.57988,1.50917 3.65007,3.43949c0.07019,2.07072 -1.57936,3.72027 -3.54478,3.68517l-6.84389,0.0351c-2.14091,0 -3.86066,1.71975 -3.86066,3.86066zM238.24557,217.1578c2.14091,0 3.89575,-1.75484 3.89575,-3.89575l-10.38867,0.0351c-2.84285,0 -5.29963,1.54426 -6.63331,3.82556z"
                    data-paper-data="{&quot;glyphName&quot;:&quot;S&quot;,&quot;glyphIndex&quot;:2,&quot;word&quot;:1}"
                    style="fill: rgb(255, 255, 255);"></path>
                <path
                    d="M253.86953,239.6198v-22.462c0,-2.14091 -1.71975,-3.86066 -3.86066,-3.86066v22.462c0,2.14091 1.71975,3.86066 3.86066,3.86066z"
                    data-paper-data="{&quot;glyphName&quot;:&quot;I&quot;,&quot;glyphIndex&quot;:3,&quot;word&quot;:1}"
                    style="fill: rgb(255, 255, 255);"></path>
                <path
                    d="M262.43902,217.1227v18.67154c0,2.10581 1.71975,3.82556 3.82556,3.82556v-18.56625l10.73964,16.8816v-5.05395c0,-1.43897 -0.38607,-2.87794 -1.1582,-4.10633l-9.58145,-15.44262v-0.0351c-2.10581,0 -3.82556,1.71975 -3.82556,3.82556zM278.72397,239.6198c2.14091,0 3.86066,-1.71975 3.86066,-3.82556v-18.67154c0,-2.10581 -1.71975,-3.82556 -3.86066,-3.82556z"
                    data-paper-data="{&quot;glyphName&quot;:&quot;N&quot;,&quot;glyphIndex&quot;:4,&quot;word&quot;:1}"
                    style="fill: rgb(255, 255, 255);"></path>
                <path
                    d="M302.31492,213.12166c-7.15976,0.21058 -12.3892,6.10686 -12.3892,13.33681c0,7.22996 5.22943,13.09113 12.3892,13.30172c0,0 0,-0.31587 0,-0.80723c0,-1.57936 -1.01781,-3.01833 -2.52697,-3.54478c-3.65007,-1.26349 -5.96647,-4.77317 -5.96647,-8.9497c0,-5.08905 3.47459,-9.23048 8.49344,-9.44106zM304.45583,239.76018c7.15976,-0.21058 12.3541,-6.07176 12.3541,-13.30172c0,-7.22996 -5.19434,-13.12623 -12.3541,-13.33681c0,0 0,0.35097 0,0.80723c0,1.61446 1.01781,3.01833 2.52697,3.54478c3.61498,1.26349 5.96647,4.80827 5.96647,8.9848c0,5.05395 -3.47459,9.19538 -8.49344,9.40596z"
                    data-paper-data="{&quot;glyphName&quot;:&quot;O&quot;,&quot;glyphIndex&quot;:5,&quot;lastGlyphOfWord&quot;:true,&quot;word&quot;:1}"
                    style="fill: rgb(255, 255, 255);"></path>
                <path
                    d="M351.25166,213.12166c-7.15976,0.21058 -12.3892,6.10686 -12.3892,13.33681c0,7.22996 5.22943,13.09113 12.3892,13.30172c0,0 0,-0.31587 0,-0.80723c0,-1.57936 -1.01781,-3.01833 -2.52697,-3.54478c-3.65007,-1.26349 -5.96647,-4.77317 -5.96647,-8.9497c0,-5.08905 3.47459,-9.23048 8.49344,-9.44106zM353.39257,239.76018c7.15976,-0.21058 12.3541,-6.07176 12.3541,-13.30172c0,-7.22996 -5.19434,-13.12623 -12.3541,-13.33681c0,0 0,0.35097 0,0.80723c0,1.61446 1.01781,3.01833 2.52697,3.54478c3.61498,1.26349 5.96647,4.80827 5.96647,8.9848c0,5.05395 -3.47459,9.19538 -8.49344,9.40596z"
                    data-paper-data="{&quot;glyphName&quot;:&quot;O&quot;,&quot;glyphIndex&quot;:6,&quot;firstGlyphOfWord&quot;:true,&quot;word&quot;:2}"
                    style="fill: rgb(255, 255, 255);"></path>
                <path
                    d="M373.08777,239.6198c2.14091,0 3.86066,-1.71975 3.86066,-3.86066v-6.7035h9.47616c0,-2.10581 -1.71975,-3.82556 -3.82556,-3.82556h-9.51125zM373.08777,213.29714v8.91461h3.86066v-5.05395h7.79151c2.14091,0 3.86066,-1.75484 3.86066,-3.86066z"
                    data-paper-data="{&quot;glyphName&quot;:&quot;F&quot;,&quot;glyphIndex&quot;:7,&quot;word&quot;:2}"
                    style="fill: rgb(255, 255, 255);"></path>
                <path
                    d="M395.41523,239.6198c2.14091,0 3.86066,-1.71975 3.86066,-3.86066v-6.7035h9.47616c0,-2.10581 -1.71975,-3.82556 -3.82556,-3.82556h-9.51125zM395.41523,213.29714v8.91461h3.86066v-5.05395h7.79151c2.14091,0 3.86066,-1.75484 3.86066,-3.86066z"
                    data-paper-data="{&quot;glyphName&quot;:&quot;F&quot;,&quot;glyphIndex&quot;:8,&quot;word&quot;:2}"
                    style="fill: rgb(255, 255, 255);"></path>
                <path
                    d="M433.25551,232.28455c0,-2.10581 -1.71975,-3.86066 -3.86066,-3.86066h-7.79151v-11.2661h7.79151c2.14091,0 3.86066,-1.75484 3.86066,-3.86066h-15.51282v18.98741zM421.60335,239.6198h11.65216c0,-2.14091 -1.71975,-3.86066 -3.86066,-3.86066h-11.65216c0,2.14091 1.71975,3.86066 3.86066,3.86066z"
                    data-paper-data="{&quot;glyphName&quot;:&quot;E&quot;,&quot;glyphIndex&quot;:9,&quot;word&quot;:2}"
                    style="fill: rgb(255, 255, 255);"></path>
                <path
                    d="M441.12306,213.29714c0,2.10581 1.71975,3.86066 3.86066,3.86066h5.5804c3.12362,0 5.6506,2.52697 5.6506,5.6506c0,3.08852 -2.52697,5.6155 -5.6506,5.6155h-5.29963v-5.82608c0,-2.14091 -1.71975,-3.86066 -3.86066,-3.86066v17.02198c0,2.14091 1.71975,3.86066 3.86066,3.86066v-7.33525h5.29963c0.56155,0 1.088,-0.0351 1.61446,-0.14039l2.2111,4.07124c1.1231,2.10581 3.29911,3.4044 5.6506,3.4044l-4.63279,-8.66893c2.77265,-1.64955 4.63279,-4.70298 4.63279,-8.14247c0,-5.26453 -4.24672,-9.51125 -9.47616,-9.51125z"
                    data-paper-data="{&quot;glyphName&quot;:&quot;R&quot;,&quot;glyphIndex&quot;:10,&quot;word&quot;:2}"
                    style="fill: rgb(255, 255, 255);"></path>
                <path
                    d="M466.85492,239.6198h10.70455c4.10633,0 7.44054,-3.3693 7.44054,-7.44054c0,-4.14143 -3.3342,-7.44054 -7.44054,-7.44054h-2.87794c-2.03562,0 -3.86066,-1.57936 -3.86066,-3.61498c0,-0.28077 0,-1.088 0.0351,-1.33368h-3.89575c0,0.21058 0,0.94762 0,1.1582c-0.0351,4.24672 3.4044,7.65112 7.65112,7.65112h2.84285c1.96542,0 3.57988,1.50917 3.65007,3.43949c0.07019,2.07072 -1.57936,3.72027 -3.54478,3.68517l-6.84389,0.0351c-2.14091,0 -3.86066,1.71975 -3.86066,3.86066zM481.10425,217.1578c2.14091,0 3.89575,-1.75484 3.89575,-3.89575l-10.38867,0.0351c-2.84285,0 -5.29963,1.54426 -6.63331,3.82556z"
                    data-paper-data="{&quot;glyphName&quot;:&quot;S&quot;,&quot;glyphIndex&quot;:11,&quot;lastGlyphOfWord&quot;:true,&quot;word&quot;:2}"
                    style="fill: rgb(255, 255, 255);"></path>
            </g>
            <g
                data-paper-data="{&quot;fillRule&quot;:&quot;nonzero&quot;,&quot;fillRuleOriginal&quot;:&quot;nonzero&quot;,&quot;isIcon&quot;:true,&quot;iconStyle&quot;:&quot;standalone&quot;,&quot;selectedEffects&quot;:{&quot;container&quot;:&quot;&quot;,&quot;transformation&quot;:&quot;&quot;,&quot;pattern&quot;:&quot;&quot;},&quot;bounds&quot;:{&quot;x&quot;:64.99999999999999,&quot;y&quot;:213.12165727059298,&quot;width&quot;:67.38528348597238,&quot;height&quot;:43.75668545881402},&quot;iconType&quot;:&quot;initial&quot;,&quot;initialText&quot;:&quot;C&quot;,&quot;rawInitialId&quot;:1065,&quot;suitableAsStandaloneIcon&quot;:true}">
                <path
                    d="M65,245.39222c0,8.42316 7.32924,11.48613 14.4397,11.48613c11.70491,0 27.56671,-6.67289 38.1777,-11.26734c4.15688,-1.75027 8.31377,-3.71932 12.58004,-5.36019c0.21878,0 0.32818,-0.10939 0.54696,-0.21878c0.21878,0 0.54696,-0.10939 0.76574,-0.32818c0.32818,-0.21878 0.87513,-0.54696 0.87513,-1.20331c0,-0.98453 -1.20331,-1.96905 -2.18783,-1.96905c-0.32818,0 -0.76574,0.10939 -1.09391,0.21878c-12.68944,4.59445 -25.48826,9.1889 -38.61527,12.47065c-4.81323,1.20331 -9.95464,2.40662 -14.87727,2.40662c-2.84418,0 -4.92263,-0.21878 -4.92263,-3.17236c0,-2.51601 2.18783,-6.12594 3.60993,-8.09498c5.57897,-7.54803 21.65955,-20.45625 30.62967,-22.97226c0.32818,-0.10939 0.54696,-0.10939 0.76574,-0.10939c0.43757,0 0.65635,0.21878 0.65635,0.65635c0,1.20331 -0.87513,2.95357 -1.75027,4.81323c-0.43757,0.98453 -0.87513,1.85966 -1.20331,2.73479c-0.32818,0.87513 -0.54696,1.75027 -0.54696,2.51601c0,1.64088 3.06297,1.85966 4.26628,1.85966c0.10939,0 0.65635,0 1.20331,0c0.32818,-0.10939 0.65635,-0.10939 0.87513,-0.10939c0.10939,-0.10939 0.21878,-0.10939 0.32818,-0.10939c0,0 0.21878,-0.10939 0.21878,-0.21878l10.39221,-13.56457v-0.21878c-0.21878,-0.87513 -0.76574,-2.51601 -2.29723,-2.51601c-2.07844,0 -6.5635,4.70384 -8.09498,6.5635c-0.32818,0.32818 -0.54696,0.54696 -0.76574,0.76574c0,0 0,-0.10939 0,-0.21878c0,-0.21878 0.10939,-0.54696 0.21878,-0.98453c0.10939,-0.65635 0.21878,-1.42209 0.21878,-2.07844c0,-3.39115 -2.51601,-3.39115 -4.81323,-3.39115c-10.72039,0 -27.23853,12.03309 -34.02082,20.01868c-2.6254,3.17236 -5.57897,7.00107 -5.57897,11.59552z"
                    data-paper-data="{&quot;isPathIcon&quot;:true}"
                    style="fill: rgb(255, 255, 255);"></path>
            </g>
            <path d="M147.65801,256.87834v-43.75669h1.4973v43.75669z"
                data-paper-data="{&quot;isShapeTextSeparator&quot;:true}"
                style="fill: rgb(255, 255, 255);"></path>
        </g>
    </g>
</svg>