<?xml version="1.0" encoding="iso-8859-1"?>
<!-- Uploaded to: SVG Repo, www.svgrepo.com, Generator: SVG Repo Mixer Tools -->
<svg fill="#fff" height="800px" width="800px" version="1.1" id="Layer_1" xmlns="http://www.w3.org/2000/svg" xmlns:xlink="http://www.w3.org/1999/xlink" 
	 viewBox="0 0 512 512" xml:space="preserve">
<g>
	<g>
		<path d="M439.646,414.689V283.835c0-80.865-52.543-149.686-125.275-174.131c15.477-15.161,25.105-36.272,25.105-59.599v-33.39
			c0-12.377-13.06-20.485-24.162-14.934c-37.129,18.57-81.475,18.575-118.626,0c-11.142-5.559-24.162,2.591-24.162,14.934v33.39
			c0,23.327,9.627,44.438,25.105,59.599C124.897,134.149,72.355,202.97,72.355,283.835v130.853
			c-19.434,6.891-33.39,25.461-33.39,47.227C38.965,489.533,61.432,512,89.05,512h333.901c27.618,0,50.085-22.467,50.085-50.085
			C473.036,440.151,459.08,421.58,439.646,414.689z M263.13,291.341c23.793,12.576,53.411,28.232,53.411,59.275
			c0,27.96-18.869,51.549-44.52,58.841v7.939c0,9.222-7.478,16.695-16.695,16.695c-9.217,0-16.695-7.473-16.695-16.695v-7.939
			c-25.651-7.292-44.52-30.881-44.52-58.841c0-9.222,7.478-16.695,16.695-16.695s16.695,7.473,16.695,16.695
			c0,15.342,12.478,27.825,27.825,27.825c15.347,0,27.825-12.483,27.825-27.825c0-10.923-18.109-20.499-35.629-29.754
			c-23.793-12.581-53.411-28.238-53.411-59.286c0-27.96,18.869-51.549,44.52-58.841v-7.939c0-9.222,7.478-16.695,16.695-16.695
			c9.217,0,16.695,7.473,16.695,16.695v7.939c25.651,7.292,44.52,30.881,44.52,58.841c0,9.222-7.478,16.695-16.695,16.695
			c-9.217,0-16.695-7.473-16.695-16.695c0-15.342-12.478-27.825-27.825-27.825c-15.347,0-27.825,12.483-27.825,27.825
			C227.501,272.505,245.609,282.08,263.13,291.341z"/>
	</g>
</g>
</svg>